<?xml version="1.0" encoding="UTF-8" standalone="no"?>
<svg
   width="5000"
   height="2600"
   viewBox="0 0 5000 2600"
   version="1.1"
   id="svg1"
   xml:space="preserve"
   xmlns="http://www.w3.org/2000/svg"
   xmlns:svg="http://www.w3.org/2000/svg"><defs
     id="defs1" /><path
     d="m1074.4,1253.2c0,0 2,-5.6 6.8,-5.6 11,-0 33.2,0.1 33.2,0.1 0,0 76.3,66.6 98.9,70.7 103.2,-11.9 120,-71.6 120,-71.6l79.8,0.8c0,0 -1.8,1.1 -1.6,4.1 53.7,2.7 72.5,-5.8 72.5,-5.8 0,0 100.8,1.4 151.7,1.7 4.1,0 5.8,4.9 5.8,4.9 0,0 -105.5,105.8 -268.1,71.7 -11.7,15.2 -38.8,34.5 -38.8,34.5 0,0 16.6,3 39.8,4.9 48.7,4 42,76.7 0.2,76.7 -169.9,-0 -300,-125.5 -300,-125.5zM543.2,1247.5v1.2c25.3,8.6 49.4,16.5 76,20 16.1,2.1 33.9,-4.5 39.2,-21.2L543.2,1247.5m-286.9,96.9c0.1,2.5 13.5,83.6 13.6,84.1 206.4,40.9 410,10.8 539.6,-108.2l-0.7,-66.1c0,0 -0.3,-4.5 -5.9,-6.9 -1,-0.4 -28.4,0.5 -28.4,0.5 0,0 -76.7,61.2 -121,80 -81.5,34.8 -167.7,40 -255.1,36.1 -47.8,-2.1 -142.2,-19.7 -142.2,-19.7m132.2,213.5 l83.9,0.4c0,0 -9.7,-21.9 -10,-33.6 -0.2,-9.8 3.1,-19.8 -0.2,-29.4 -7.2,-21 -36.4,-27.3 -50.5,-9.7 -14.3,17.8 -7.1,55.8 -6.7,62.3m1086.6,10.8c-13.4,-22.8 -54.2,-27 -66.5,-0.6M1297.4,2.1c-78.6,10.7 -108.3,98 -123.4,165 -4.1,18.1 -8,36.6 -9.1,55.2 -1.1,20.3 -1.9,39.9 1.8,60.1 10.5,58.2 64.9,95.5 123.3,87.9 36,-4.7 63.8,-31 81.9,-61 17,-28.1 27.1,-60.3 35,-92 10.4,-41.7 18,-84.8 9.6,-127.5 -10.8,-54.9 -62,-95.6 -119.2,-87.8m9.8,37.8c38.7,-5 66.1,30.6 68.6,65.9 3.9,56.8 -14.8,127.2 -40.1,177.8 -11.8,23.5 -31.3,46.1 -59.2,48.8 -39.8,4 -67,-29.8 -68.6,-67.2 -2.5,-56.7 14.9,-123.6 40.1,-174.1 12.4,-24.9 29.8,-47.3 59.2,-51.1M450,253.6c-9.5,1.7 -18.4,5.1 -27,9.6 -73.5,38 -31.7,143.3 -0.2,195.9 7.5,12.5 15.9,25 26.1,35.5 19.5,20 46,29.4 73.5,24.3 9.2,-1.7 17.5,-5.5 25.8,-9.8 70.5,-36.5 31.4,-132.6 5.2,-184.8 -7,-14 -15.5,-27.7 -26.2,-39.2 -20.3,-21.8 -46.5,-36.7 -77.1,-31.3m6.1,28c20.3,-1.6 37.6,12.5 48.9,27.8 23.9,32.4 46.2,80.9 50.3,121.4 2.6,26.1 -7.8,56.6 -37.8,59.9 -23.5,2.5 -41.9,-12 -54.4,-30.4 -22.6,-33.3 -41.9,-76.3 -47.4,-116.5 -4,-29.1 6.9,-59.5 40.5,-62.1M63.8,1635c53.2,-0.3 160.9,0.9 160.9,0.9 0,0 -21.9,-17.7 -33,-47.2C77.1,1523.3 71,1385.1 144.5,1305.7c-19.3,-77.9 -22.2,-143.8 28.4,-204.1 9.9,17.5 36.2,47.2 36.2,47.2 0,0 14.1,-6.6 36.4,-6.6 65.5,0 224.3,-0.1 280.5,-0.1 -36.5,-63.7 -21.4,-112.3 -21.4,-112.3 46.1,-6.8 74.6,-29.9 57,-57.7 -24.9,-39.4 -51.1,0.4 -86.4,-1.8 -36.9,-3 -35.4,-25.6 -54.6,-28.1 -13.2,-1.7 -30.8,9 -34.5,24.9 -7.4,32.2 44.2,55.9 44.2,55.9 0,0 -11.6,55.6 7.4,113 -285.4,26.3 -279,-291.6 -69.7,-318.7 0,0 28.8,-133.7 189.3,-145.7 -11.8,40 10.3,220.5 195.9,243.2 0,0 5.8,13.6 9.2,20.1 10.3,19.6 31.8,41.3 53.9,21.4 8.3,-7.5 11.6,-19.2 9.6,-30 -4,-20.9 -21.3,-35.8 -21.3,-58.9 0.2,-38.4 28.6,-32.6 10.9,-66.2 -29.1,-36.7 -62.2,4.5 -65.1,33.1 -138.8,-14.6 -169,-220.6 -32,-279.4 41.8,-17.9 105.8,-8.6 139.9,23.2 24.9,23.3 40.4,60.5 40.4,94.3 0.1,106.6 1.2,213.3 0.7,320 -5.2,69.6 -52.2,159.5 -52.2,159.5 0,0 54.4,19.4 66.3,87.4 2.5,21.6 1.1,81.8 1.1,81.8h54c0,0 0.3,-50.2 0.4,-79.7 12.9,-74.4 71.9,-91.3 71.9,-91.3 0,0 -52.9,-100.5 -58.3,-161.9 0.5,-103.2 -0.4,-254.1 -0.4,-315.2 11.4,-122.7 102,-133.7 160.2,-124.1 52,8.6 101.4,56.4 108.4,124.7 6.9,68 -20.7,138.1 -118.1,160.7 0,0 -3.4,-25.9 -21.2,-45.6 -12.2,-13.5 -37.8,-9.7 -45.4,7 -14.4,31.8 9.5,27.7 11.1,68.2 1.1,26.9 -14.2,41.7 -19.2,55.5 -5.4,15.1 -2.1,35.2 21.5,43.5 32.6,8.4 47.7,-49.6 47.7,-49.6 0,0 210.6,-14.8 197.9,-243.3 90.9,9.4 162.2,53.5 189.2,148.4 166,7.5 180.6,212.9 116.1,323.4 29.1,0 50.2,6.5 73.6,23.6 0,0 13.1,-25.4 22.1,-56.4 57,65.2 14.8,196 14.8,196 0,0 132.4,161.2 -46.5,272.3 -5.6,25.2 -36.9,60 -36.9,60l161.5,0.3c0,0 2.6,-37.7 -2.1,-60.7 106,-165.4 -1.6,-298.4 -1.6,-298.4 0,0 61.9,-149.2 -73.7,-269 1.3,-224.4 -173.8,-262.3 -173.8,-262.3 0,0 -59.2,-154.4 -262.4,-156.6 -71.8,-149.7 -272,-167.5 -364.8,-32.4 -97.5,-154 -315.3,-95.7 -364.8,33.2 -206.8,4.4 -262.8,158.9 -262.8,158.9 0,0 -195,56 -169.3,265.1 -130.3,137.3 -76.8,262.6 -76.8,262.6 0,0 -107.3,147.6 -1.7,299.9 -5,13.7 -2.3,57.1 -2.3,57.1M914.8,1444.9c0,0 0.1,72.8 -0.2,109.1 -0.2,24.6 -14,51.5 -14,51.5l-0.5,31.9h83.4l0.2,-30.7c0,0 -14.2,-20.6 -14.7,-49 -0.7,-37.6 -0.2,-112.8 -0.2,-112.8h-54m511.4,-380.8c-20,3.7 -28.3,26.9 -49.1,31.7 -28.2,6.5 -64.2,-29.6 -85.6,-5.1 -16.2,18.5 -4.9,50.9 10.1,50.8 12.6,-0.1 91.9,0.7 123.2,0.5 17.1,-0.1 35,-31 35.2,-48.3 0.2,-18.5 -15.1,-33.1 -33.7,-29.6m3124.5,557.9c-61.7,9.6 -47.1,102.6 14.7,92.3 54.3,-9.1 41.2,-101 -14.7,-92.3M65,1801.8v797.1h90.7v-256.3c30.5,0 62.3,3.1 92,-5.4 13.5,-3.9 26.5,-10.4 38,-18.3 23.6,-16.1 46,-39.8 56.1,-67 10,-26.8 8.9,-57.7 8.9,-85.8v-120.2c0,-63.2 11.7,-137.9 -31.2,-190.1 -41.8,-50.8 -97,-54 -157.6,-54L65,1801.8m372.8,540.8h90.7v-272.2,-83.4c0,-17.5 -1.4,-35.6 3,-52.7 9.7,-37.6 61.2,-59.9 89.3,-25.7 20.5,24.8 15.5,60.8 15.5,90.7h90.7c0,-47.5 3.7,-95.8 -25.9,-136.1 -63.7,-86.5 -195.3,-77.9 -247.7,15.9 -24.3,43.5 -15.8,102.8 -15.8,150.8v312.7m506.4,-540.3c-18.1,2.4 -34.9,5.8 -51.5,13.8 -32.7,15.6 -65.1,46.9 -75.1,82.6 -8.6,30.6 -5.8,63 -5.8,94.4v114c0,26.2 0.3,52.3 0,78.5 -0.2,22.5 -0.4,47.7 9,68.7 25.9,57.9 88.2,95.7 151.7,87.9 15.6,-1.9 31.1,-6.3 45.4,-13 31.6,-14.9 63.6,-46 74.5,-79.8 10.6,-32.9 7.6,-69 7.6,-103L1100,2032.3c0,-43.8 8.6,-99.7 -9,-141 -23.5,-55 -85.7,-97 -146.7,-89m435.3,530.5v89.5c0,22.2 1.1,44 -10.9,63.8 -18.3,30 -66.9,29.7 -85.4,0 -15.4,-24.9 -11.6,-56.7 -11.6,-84.6h-89.5c0,49.3 -7.3,95.2 26.9,138.6 66.9,84.9 192.4,78 247.5,-20.8 13.7,-24.6 13.9,-54.7 13.9,-82.2v-84.6,-304.1c0,-48.8 8.7,-107.8 -8,-154.5 -32.6,-91.3 -154.7,-118.9 -227.4,-60 -17.9,14.5 -34.5,33.6 -43.6,55.1 -17.7,42.1 -9.2,97.5 -9.2,142.2v133.7c0,28.4 -2.3,58.6 7.5,85.8 12.6,35.2 43.9,64.4 77.1,80 15.8,7.4 34.1,12 51.5,12 22,0 40.4,-3 61.3,-9.8m183.9,9.8h90.7v-272.2,-83.4c0,-17.6 -1.4,-35.5 2.9,-52.7 9.9,-39.5 61.5,-58.9 89.9,-24.5 19.9,24.1 15.1,60.5 15.1,89.5h90.7c0,-46.7 3.2,-95.2 -25.4,-134.9 -10.2,-14.1 -22.7,-26.5 -37.1,-36.4 -74,-50.9 -170.8,-22.1 -213.5,54.8 -22.8,40.9 -13.3,100.9 -13.3,145.9v313.9m466,-388.7c1.3,-16.9 5.4,-35 17.5,-47.6 18.4,-19.2 56.5,-18.6 74.2,1 21.2,23.5 16.2,56.8 16.2,85.8 -64.4,-24.3 -141.9,2.8 -176.1,62.5 -19,33.2 -20.1,68.2 -20.1,105.5 0,44 0.8,85.4 27.5,122.6 23.6,32.9 60,53.7 100,58.5 19.1,2.3 39.6,0.4 58.9,0.4h100.6v-289.4c0,-50.6 7.2,-107.9 -7.3,-157 -22.3,-75.5 -117.9,-111.6 -187.7,-85.6 -43.3,16.2 -82.4,55.1 -90.4,101.5 -1.7,9.9 -2.2,19.5 -2.9,29.4 -0.2,3.2 -2.2,8.6 0.9,11 4.6,3.7 18.1,1.3 23.8,1.3h65m283.3,-152.1v540.8h89.5v-450h90.7v450h89.5v-450c27,0 59.5,-5.5 77.5,19.6 23.3,32.5 13.2,88.5 13.2,126.3v304.1h89.5L2762.8,2004.1c0,-35.8 4.8,-76.1 -7.5,-110.4 -8.9,-24.8 -28.1,-47.1 -48.9,-62.7 -44.2,-33.1 -94.9,-29.3 -147.2,-29.3h-246.5m672,0.5c-17.6,2.3 -34.1,5.5 -50.3,13.3 -31.7,15.4 -61.8,43.2 -74.1,76.9 -9.9,27.3 -8,57.4 -8,85.8v128.8,80.9c0,22 0.2,47 9.6,67.4 26.1,57.2 88.4,94.2 151.1,86.7 15.7,-1.9 31.1,-6 45.4,-12.9 11.4,-5.5 22.2,-12.9 31.9,-21 51.8,-43.1 50.3,-99.2 50.3,-160.7v-116.5c0,-43.9 8.7,-99.7 -9,-141 -23.3,-54.5 -86.6,-95.7 -146.7,-87.8m240.3,-0.5v288.2,87.1c0,21 -1,42.1 4.3,62.5 18.4,72 87.6,122 165,98.8 24.5,-7.4 40.4,-22.6 57.6,-38.7 14.3,16.8 29.7,29.2 46.6,35.8 64.2,24.8 136.5,-6.4 163.3,-70.1 21.1,-50.2 14.5,-104.8 14.5,-161.9v-301.7h-90.7v347c0,37.5 9.7,103.6 -45.4,103.5 -54.7,-0 -44.1,-66.7 -44.1,-103.5v-347h-90.7v345.8c0,37.2 10.4,103.8 -44.1,104.6 -55.8,0.8 -45.4,-65.8 -45.4,-103.4v-347h-90.7m538.3,152.1h90.7c0.7,-16.7 5.6,-35.3 17.4,-47.7 17.9,-18.7 55.4,-18.5 73.2,-0.1 22.3,23.1 17.3,57.7 17.3,87 -63.3,-23.9 -140.1,1.9 -174.8,60.1 -20.3,34 -21.4,69.5 -21.4,107.9 0,44.1 0.7,85.3 27.5,122.6 23.6,32.9 60,53.7 100,58.5 19.1,2.3 39.6,0.4 58.9,0.4h100.6v-315.1c0,-47.5 8.7,-106.7 -15.8,-149.6 -58,-101.4 -204.4,-98.5 -259.7,3.7 -11.5,21.2 -13.8,48.6 -13.9,72.3m372.8,-150.8 l1.2,58.9v114,366.7h89.5v-450c27.7,0 71.6,-8.5 92.8,13.7 27.8,29 17.5,85.8 17.5,122.4v313.9h89.5v-328.6c0,-55.9 7.4,-113.6 -31.2,-159.4 -45,-53.4 -104.9,-52.7 -168.7,-52.7h-60.1c-9.8,0 -21.2,-1.6 -30.7,1.2m374,-1.2v540.8h90.7v-398.5,-103c0,-8.3 4,-30.7 -1.3,-37.3 -3.5,-4.5 -18.1,-2 -23.3,-2h-66.2m180.3,152.1h62.5c6.9,0 19.1,2.3 25.4,-0.7 4.5,-2.2 3.7,-14.4 5,-18.9 3.6,-13 10,-25.5 21.2,-33.6 29.6,-21.2 68.8,-2.8 80.1,28.6 6.9,19.4 3.3,43.5 3.3,63.8 -66.3,-28.5 -148.3,8.2 -179.9,69.9 -11.8,23 -12.9,44.9 -15.2,69.9 -4.9,51.4 -3.4,108.8 27.7,152.1 23.2,32.2 59.7,52.6 98.8,57.3 19.1,2.3 39.6,0.4 58.9,0.4h100.6v-316.4c0,-45.4 9.5,-104.9 -14,-145.9 -48.9,-85.5 -164.1,-105.2 -234.9,-34.3 -12.6,12.6 -23,27.9 -30.3,44.1 -8.7,19.5 -9,42.9 -9,63.8m-4534.7,299.2v-360.5c25.9,0 66.6,-7.7 86.8,12.5 19.8,19.8 17.4,51.5 17.4,77v177.8c0,26.6 2.7,58.6 -17.4,79.6 -19.9,20.8 -60.9,13.6 -86.8,13.6m790.9,-360.2c35.7,-4.6 58,18.3 62.2,52.4 3.1,25.4 0.4,52.8 0.4,78.5v155.7c0,29.9 -6.8,67.8 -42.9,72.1 -33.6,4 -58.3,-13.3 -63.4,-47.6 -4.4,-29.9 -1.6,-61.8 -1.6,-92 0,-51.9 -0.6,-103.8 0,-155.7 0.4,-29.5 13.3,-59.2 45.4,-63.4m370.3,0c35.7,-4.6 58,18.2 62.2,52.4 3.1,25.4 0.4,52.8 0.4,78.5v155.7c0,29.9 -6.8,67.8 -42.9,72.1 -40,4.8 -60.2,-19.8 -64.6,-57.4 -3.3,-27.5 -0.4,-56.9 -0.4,-84.6 0,-51.1 -0.6,-102.2 0,-153.3 0.4,-29.5 13.3,-59.2 45.4,-63.4m1670.2,0c34,-4.4 57.8,16.5 62.2,49.9 3.3,25.3 0.4,52.9 0.4,78.5v154.5c0,29.7 -3.9,71.5 -41.7,75.8 -35,4 -58.9,-13.4 -64.5,-48.8 -3.9,-25.1 -0.5,-53.1 -0.5,-78.5v-155.7c0,-32.4 4.8,-70.5 44.1,-75.7m-849.8,360.2c-24.2,0 -58.6,6 -79.7,-8.3 -34.1,-23.2 -33,-81.7 -26.7,-118 2.3,-13.2 6.5,-26.6 15.9,-36.7 16.9,-18.3 44.9,-16 67.2,-12.2 5.7,1 18.4,1.6 22,6.7 2.3,3.2 1.3,9.1 1.3,12.9v31.9,123.9m1824.7,0c-23.7,0 -57.5,5.8 -78.5,-7.5 -31.9,-20.2 -29.4,-60.2 -29.4,-93.1 0,-21.2 1.6,-44.5 16.3,-61.3 16.7,-19 44.4,-17.3 67.1,-13.6 5.9,1 19.5,1.5 23.3,6.9 2.3,3.2 1.3,9.1 1.3,12.9v31.9,123.9m925.8,-170.5v170.5c-26,0 -61.9,6.4 -83.4,-11.4 -25.1,-20.8 -23.3,-52.4 -23.3,-81.8 0,-13 -1.1,-26.5 1.7,-39.2 3,-13.2 9.1,-27.3 20.3,-35.5 25.5,-18.5 56.7,-6.3 84.6,-2.5"
     stroke-width="92.6939"
     fill="#353535"
     stroke-linejoin="round"
     stroke-linecap="round"
     id="path1"
     style="fill:#fcf8f8;fill-opacity:1" /><path
     d="m 889,1417.9 h 105.5 v 104.2 c 0,33.1 -0.4,64.7 25.8,89.3 37.4,35.2 96.1,24.5 143.1,24.5 l 332.6,0.2 c 44.2,0 103.3,10.8 141,-17.1 32.5,-24 33.5,-58.3 39.5,-94.5 10.5,-62.9 20.6,-126.1 32.3,-188.8 5.9,-31.7 18.7,-71 12.2,-103 -1.7,-8.3 -5,-15.9 -9,-23.3 -30.4,-57.1 -102.2,-45.4 -156,-45.4 H 1509.4 1182 l -103.9,-0.2 c -44.1,-0.1 -82,42 -84,77.9 -1.6,29.8 -0.8,101.5 -0.8,101.5 l -103.8,0.3 c 0,0 -0.5,-76.5 -0.6,-94.6 -0.1,-51.4 -48.3,-84.6 -87.3,-84.6 l -516,-0.2 c -35.8,0 -69.4,-1.4 -98.1,23.8 -33.8,29.8 -27.1,68.3 -20.6,107.4 12.2,73.2 25.4,146.3 37.6,219.5 5.8,34.8 5.5,73.8 34.5,98.8 38.1,32.9 95.5,22.6 142.2,22.6 H 716 c 45.5,0 107.1,11.5 143.5,-22.2 30.3,-28.1 29.4,-62.3 29.4,-100.4 V 1418 M 240.3,1220.9 c 14.7,-2.6 31.6,-0.4 46.6,-0.4 h 92 288.2 l 140.1,0.2 c 11.4,0 26,17.8 26.1,27.1 l 0.6,258.4 c 0.1,25.1 7.4,64.7 -24.5,73.4 -13.7,3.7 -30.1,1.4 -44.1,1.4 H 681.8 408.3 l -113.6,-0.3 c 0,0 -24.7,-3.8 -28.4,-26.7 -10.8,-66.1 -32.8,-191.3 -43.9,-257.5 -4,-23.9 -18.8,-69.2 17.9,-75.6 m 835.1,0 c 14.8,-2.5 31.6,-0.4 46.6,-0.4 h 93.2 285.7 105.5 c 14.6,0 33.8,-3.4 46.6,4.9 25.8,16.7 10.2,55.6 6.2,79.7 -11.5,69.1 -24.1,138.1 -35.6,207.2 -4,23.9 -3,60.5 -32,67.6 -13.7,3.3 -30,1.1 -44.1,1.1 h -84.6 -271 -89.5 c -15,0 -30.7,1.9 -42.8,-9 -16.8,-16 -10.2,-51.7 -9.9,-73 0,-0.5 0,-0.9 0,-1.4 v -204.8 c 0,-24.2 -7.5,-66.3 25.8,-72 M 559.7,67.79998 l 34.3,43.5 42.4,-33.3 L 869.9,381.4 913.2,347.8 646.5,0.89998 m 1018.8,329.7 37.1,21.20002 -151.6,258.1 38.1,21.9 172.5,-295.50002 c -24,-14.6 -74.3,-43.8 -74.3,-43.8 M 2564.2,383.4 c -65.1,10.2 -69.2,110.6 -3.7,124 93,19 106.3,-133.7 3.7,-124 m 2298,0 c -40.2,7.2 -63.2,54.9 -44.9,91.4 13,26.1 42.8,38.3 70.7,33 48.9,-9.3 60.8,-77.4 28.1,-110.1 -13.7,-13.7 -35.2,-17.6 -53.8,-14.3 m -2601.1,969.5 v 123.9 c 0,30.6 1.2,61.2 -15.7,88.3 -26.7,42.7 -94.1,37.8 -118.6,-3.7 -19.7,-33.3 -14,-77.1 -14,-114 l -42.9,1.2 h -79.7 c 0,64.4 -5.6,130.7 34.9,185.2 19.9,26.8 46.6,50 76.7,64.7 96.9,47.2 215.7,2.9 264.6,-91.7 17.3,-33.5 17.5,-72.3 17.5,-109.1 v -119.1 -415.7 -114 c 0,-31.8 0.4,-65.2 -10.5,-95.6 -7,-19.7 -20.1,-38.3 -33.7,-54 -72.6,-84.3 -204.6,-95 -286.9,-18.3 -21.6,20.1 -41.8,45.3 -51.9,73.5 -15.7,44 -10.7,95.1 -10.7,141 v 198.7 c 0,48.5 -7.9,109.4 13.8,154.5 45.1,93.5 158.7,147.9 257.2,104.2 m 251.4,-724.7 v 739.4 h 122.6 V 628.2 h -122.6 m 513.8,724.7 v 121.4 c 0,31 1.2,61.9 -15.3,89.5 -24.5,41.1 -91.5,41.1 -117.1,1.2 -21.8,-34 -16.1,-78.1 -16.1,-116.5 h -122.6 c 0,61 -6.5,126.4 30.3,179 16.9,24.2 38.9,45.6 64.1,61.2 99.5,61.8 227.4,18 281.7,-82.1 16.9,-31.2 17.5,-69.7 17.5,-104.2 V 1381.1 964.2 850.1 c 0,-32.1 0.3,-66.2 -10.7,-96.9 -7.4,-20.6 -21.4,-40.2 -35.9,-56.4 -72.1,-81.3 -198.5,-90.9 -280.9,-19.3 -22.7,19.7 -44.3,45.9 -54.9,74.4 -19.7,53 -11.3,117.5 -11.3,172.9 v 189 c 0,41.5 -2.9,85 9.8,125.1 6.4,20.1 19.6,39.1 33,55.2 56.5,68 146.4,90.4 228.2,58.9 m 251.4,-517.5 h 122.6 c 1,-23.1 8,-49.2 24.7,-66 24.2,-24.2 74.7,-24.2 98.9,0 31.5,31.5 24.7,79.5 24.7,120 -59,-12.2 -116.2,-17 -170.5,15.3 -44.7,26.6 -80.9,71.9 -92.4,123.3 -7.6,34.1 -5.7,70.7 -5.7,105.5 0,59.1 5.3,114.1 43.9,161.9 31,38.3 76.3,64.5 125.3,70.8 28.2,3.6 57.4,1.6 85.8,1.6 h 136.1 V 936 c 0,-66.7 12,-147.5 -23.1,-207.2 -11.9,-20.2 -27.7,-38.2 -45.5,-53.2 -99,-83.6 -250,-48.2 -308.7,65.5 -14.5,28.1 -16.3,63.4 -16.3,94.4 m 510.1,-207.2 v 739.4 h 122.6 V 752 c 37.6,0 98.5,-11.8 127,18.6 22.7,24.2 23.8,58.1 23.8,89.3 v 78.5 429.2 h 122.6 V 905.3 c 0,-49.8 6.7,-107.1 -11.8,-154.5 -10.3,-26.4 -29.5,-49.1 -49.5,-68.7 -12.9,-12.6 -28.4,-23 -44.1,-31.5 -37.8,-20.5 -79.5,-22.5 -121.4,-22.5 h -114 c -18.1,0 -37.2,1.9 -55.2,0 m 903.8,469.7 h -122.6 c 0,39.7 5.8,85.7 -18.1,120.2 -31.8,45.9 -101.7,29.8 -121.8,-17.2 -13.9,-32.5 -8.4,-72.2 -8.4,-106.7 V 889.4 c 0,-36 -4.9,-75.9 15.3,-107.9 24.6,-39.2 91.2,-40.5 116.6,-1.2 22,33.9 16.5,78 16.5,116.5 h 122.6 c 0,-60 6.1,-124.3 -28.8,-176.6 -78.3,-117.5 -251.7,-120.9 -333.3,-4.9 -36,51.2 -31.5,110.8 -31.5,170.5 0,97.7 -0.5,195.4 0,293.1 0.7,149 180.5,239.3 302.9,157.8 33.3,-22.2 65.8,-55.6 79.6,-94 16.2,-45.2 11.1,-97.5 11.1,-144.7 m 118.9,269.8 h 124.1 V 628.3 L 4810.2,628 m -2635,124.6 c 44.9,-5.5 76.7,20.6 84.1,64.6 8.1,48.2 1.8,102 1.8,150.8 v 131.2 c 0,22.2 1.9,45.4 -0.2,67.4 -3.9,40.7 -23.9,74.1 -67.2,78.3 -45.2,4.3 -75.1,-29.2 -79.5,-72.1 -4.9,-48.4 -1.4,-98.5 -1.4,-147.2 0,-62.7 -2.7,-126.2 0,-188.8 1.7,-39.7 19.1,-78.9 62.5,-84.3 m 764,0 c 42.3,-5.5 76.3,17.2 84.3,59.7 9.2,48.9 2.8,103.6 2.8,153.3 v 132.4 c 0,22.2 1.9,45.4 -0.2,67.4 -3.9,40.8 -22.7,74.2 -66,79.4 -51.3,6.1 -76.4,-34.1 -81.8,-79.4 -5,-42.5 -0.3,-88.4 -0.3,-131.2 0,-66.4 -2.9,-133.5 0,-199.9 1.7,-38.3 19.8,-76.4 61.3,-81.8 m 609.5,492.6 c -33.4,0 -79.8,8.3 -109.1,-10.7 -42.5,-27.5 -39.2,-81.4 -39.2,-125.4 0,-29.9 1.9,-62.2 23,-85.7 23.5,-26.2 62,-23.1 93.5,-17.8 7.3,1.2 25.9,2.2 30.6,8.6 3,4 1.3,13 1.3,17.7 v 44.1 169.2"
     stroke-width="1.22626"
     fill="#f07e04"
     stroke="#00000000"
     id="path1-5"
     style="fill:#fb8a36;fill-opacity:1" /></svg>
